<mxfile host="65bd71144e">
    <diagram id="ajGLNP8Ydm3tyB9QjLGH" name="Some of core modules of nodejs">
        <mxGraphModel dx="820" dy="478" grid="1" gridSize="10" guides="1" tooltips="1" connect="1" arrows="1" fold="1" page="1" pageScale="1" pageWidth="827" pageHeight="1169" math="0" shadow="0">
            <root>
                <mxCell id="0"/>
                <mxCell id="1" parent="0"/>
                <mxCell id="2" value="" style="shape=image;verticalLabelPosition=bottom;labelBackgroundColor=#ffffff;verticalAlign=top;aspect=fixed;imageAspect=0;image=data:image/png,iVBORw0KGgoAAAANSUhEUgAAApkAAAFGCAYAAAAhL4Q1AAAAAXNSR0IArs4c6QAAAARnQU1BAACxjwv8YQUAAAAJcEhZcwAADsMAAA7DAcdvqGQAAGYQSURBVHhe7d0HgNRk3gbwJ8nMbK90kY4Fe8GugKCiZ+9iBxV772c9Pe/Ormfvep6f5SzYxYa9V/QsKEhH6vYyJcn3/7+ZrMOKHMrsMgvPD7Izk55M5s0zb8pYvgARERERURbZ6UciIiIioqxhyCQiIiKirGPIJCIiIqKsY8gkIiIioqxbLGTyCiAiIiIiyoaWkKkBkyGTiIiIiLIhfQsjT55mVmpq3LSCpy20nyXhEXciIiIiWlwQMiVTuokUHrr7Qey/z24ocOZLzmySRoKlZk3NodYS6jlNFnWAyp5ApEKe52kL04mIiIiIVl2W7/r+FSdfgdeffAF2XhGcZBM2W70Klx42AHZ8NnzJjJaETV+ftGLyJxzErWLYW+yDvK3HAHZB0JGIiIiIVln2Z69/jLeffg3FsWLEJDBGIqX46ufueOzNRRIiHdhaiSlp0pYnrRvLPCZRYNXB+ugR+D+9J6NMSbOEWk8iIiIiWmU4DfOrLrUtB9HCPMQKY9JE4RTkoa56JnbeqEh60dAY1mLqY0bj2/IQdHPgYuHMaSjcdHdpF0n3Q0RERESropZzMhejr5t+hHvHEXowPGi3xNpJbZduLw/1+V1QfMITMtZiacGQSURERLSqss1V4+mKSVM5qY+2JEa90Ecv+FlWOuzv6Z+IiIiIVlp6vDv9NGBeBUlziXWXS7OkC9CJiIiIaNXzq5BpmLTow3f0UXr5zRrKIIwG/dhwtBWDJhEREdEqTxPikpnsuYQASkRERET0P/x2yPzdgtrPAMMpERER0aosiyEz1AajJCIiIqIOhYmQiIiIiLJuGUImr+QhIiIiot+nVcgMz6v0zGNwl3ZtLGZNIiIiIlpmy364nNfyEBEREdEyWsaQGSbMVtWZYUXnL0+IiIiIiJYeMtP3ZG/hWlHUpfJR6+ahXhogGnRA6jdrOoOD7p5piIiIiGjVsJSQacHzJGFqeLSCgJjcfBRKzhiH0tPHofj0Z5Da5qh0JWZEmiWnTEvbh82y4O+fExEREXV4li/SzzNIqGz6CYlbD0fMips2tShB6YkP4ctP5qK5Jo5IYQSbbt4NjXcciUKvxgzTFOuEghOfluhaKGERmD9tHt5+aQKmTp2GfgMHYPhuO6CsW5lOVfpfPHTWLarDfz/82mTMTbffFLGCWLpLmrT/6PUP4FgR+LZvwmtJeSn6r9UfkXwJuTo6baS/j9/6ELZvfuQyaCH96hTziwuw3mbrBq2JiIiIqM38RsiUVhoybzsCMTRLXxbcDQ6EPfh4DBswHMWFlaiN1+HNqW/AevPvsP77rAyTQlO0SxAykYfr/3wDxj/8PBwZvROJICUBsF6GOeHCk3DQ8QeZqbQETZncSXuegJ+++snUnh5y0iE49MzDWjob0s923bZAWVEZXGmvITLhp1DXXI8L/n4+dj90VyAqwVL622ntYXCaYyZYmhZCFgG91umHO1+407w2MsdPRERERFmz1HMyg3gGNNqlcDbfG/ff/C+UlRbD9RMoLyzFdRdcC2vYGAmXRdJX2LePN55+Ay88+JyM3Mbam62Hs/92HgZvsyGsqIu9D91b+tF0l5HwksAPX34L100iYlu455/3AEEF6i9k9KmU9Ci22m4r7HbwHijpVIjy/DJc9+frMHPSDNNN2TIO23bQs19vjNx/D2l2ww777IDNhm+Z7oOIiIiI2tJSQ6Zt6QU7Nvzeg4H83nj07ieQSLq456l7kUg1YfwTzwGxrkgM2E76c9KnXdq46crrEYna6LtOH1z72A3Y7sBhuOyBK/HmlA+QV5Jvxt1CwuMJ+4xFxIpho8EbI+42I9/Jx/gnX0r3sDg9O/RPh++G4684Hk9++jR6DOiOvFg+Tj/2rIycK/Ms8zJgnX7YbdTO2O3AnbH7wXti/8P3TfcgWItJRERE1Gb+5y2MGhBD0e6n4J0n34Dt2YgV56Hnhr2RV16AqB3Dc/c/g7KdxiKBAhmZC7gOFs1eCNdzcemVlwdTCCsutdEgGIZBeVI/vw7//eRrJN0Ujj3/eFxwzUVwk3HcfNn1QaJcAo2+YUjce9Q+puZy9o/TghbClpAZkV7eff4tnLLP8Th1vxNx8t7H4q3xb/8yH0RERETUZpYeMi0Hft8tJNV1wSXnXA7bimH1Xv1w9z/uQP/+A+V1FP84/x/SYxe4A7eWzKjnRLpwHEeCn41vvvk2GE8G3w+Tozx6Fq65+CoU55fKawsTXnoLU76bhojtwG208OPXk5YYCDNvrfTdxG/kr4P8Yh2HkP7DXFvRrRM2Gro5NtpuM2wyZAt079HV9EJEREREbWspITOCWq8IJcOPxdTvpiPixwDXxU/fTsZT9zyJSV9+J2HPRnl+Bb5+92sUDh2FahRL3vOw4WYbw7Es/OWci7Bw6gIZDqieWY0TDjzODKOHsj2JgcnGOF57+mVo7ozYMfzn7sfwxL2PwpGA6jg+zjjqlCBMtgRNW4Z3kKr30DQvjnefexevPDVe2vsYe/rxpj/tXWs6Xfm7yZDNcOG1l+CC6y/ERddfjHU3HGTGQkRERERt6zeuLhfJOtR88z7K1h+BfTY7AI0LatFv7V4YtvsOsBwLviTFd8a/i58mToFf4OP5ic+h+ttXUb7uDmha2IydNxqJYqcIzalmJL0EIk4M+fkF2Gj4prjirr+a2shrTvkH3n5mAuqTcRx17nGIRvQa9RQino17rrxTqz3x2IdPo7RnuQmqW3fZDF3Kukv/TfAkmRbl5ZtD43apjXGfPaMVmiZl7rr2zkCzhYSXQpMbl9SpFwz5KCouwPjJE8ziEREREVHb+e2QmW47e+ocHLbDIRLqUrjn2fvQf50BQQcxe8ocHDLyQDhOFLf+53YM3GANCX3SwZKMWpvE2L3H4qvPv0B+NA+NzfUYtstOuPq+q+HkB7caGr7GdohZeeizbn/c8XTGrYUkUO639Z6oX9Ag3XrhjnH3SjsLm3TfBJ2Ky+FJQtXKzZLKChx3yvEYeeiOEjB9+JYl7X2MkPFaSUee2dJY8ldDpodoLIoXJ71hJkFElMtSqRR++OEHrLnmmuYUpN9Li3ZL790mpkyZgu7du6OwsNC8JiJqD78dMjNl9tFy6DqDnmZptzz8Qlto/5rxwl+g1JGZccgf7a7jDgfKHHc4TdM9YwKZ0v3r4fdfBpWevKWcBbCUTkT0+4VhJrMoCcPNykiXUxs977ytDBs2zIzfdV289tpriEQi6S6/zw477GDG4XkeHn30URM0iYjay7KFzKzJTImyE9J0mH6adZlLtfLu74hWCA0uWnQ888wzePzxxzFr1izzWsNMeXk5Nt98c4wePRqrr756zgfOk08+GfX19eb54Ycfju233948b02X78gjj0y/Av75z3+irKws/Sq7hg8fjmg0ing8jldfffUPh8wRI0aYWtBEIoFHHnmEIZOI2hXr9Yjod0smkxg6dCjuuOMOLFy4EPn5+eZQbElJien2zjvvYOzYsem+c9t3332H2bNnm+aCCy4wQXlJtCZQ+5k7d655nDdvXrpL9oXf/bNRB7Ay1yoTUW5r55Cpk9MCL92ET5WW6ylpwjJVH7Vx0412b9XNl/7DVi3dU/LHlSYcr9L2YaPCcWoTthO+/DP34CSi36Shcscdd0RRkf7Sl3xuJAhpjZvWbup5hForqMFm5513XmLAaR2cliVIZaufJdF5DpWWlpra2dY0ON9zzz3mELZOR5dr+vTp6a5LFs7Pss7X751/Xd+ZdPjW01zWgPl7ph1Ot/W0iIhaa+fD5Uu2+yZ/QqougZQUXq98NwGISSHm25jx6Qwcuu/BiFg2Dj31SIw+bYzp/9ZLb8JTD41DpMDBi1++bALltedfhXH/HocevVbDY288LuMA5k6diwOH7IXm5ma89t+3UNSlBMP6bwNPRm/BkYW3EM3LwyaDN8LFN12Mos7Frc7vJKLW9tprLzQ2NpoAo+Hrsssuw5ZbbmkO6Wpxou211m/XXXdFcXFxeqhffPDBB5g8ebLpNmjQIHNhy2+ZM2eO6beurs681sO96623njmUnOnjjz/Gt99+i4KCAtNdx7us9LzF8MIaDVCxWAzPP//8YgHto48+wp///OeW/nQ5Dz744MUOn4c0tH744YdmvrVmd6ONNkK/fv3SXZfsk08+MTWkWhu81VZbYZdddjHzYcqu9DmZOm8zZgQ/n6tht1evXi3zOHXqVNNd50unpd21W7hs+iXgtw6XNzQ04L333jOhuVu3buZUh65dl3xP4erqarOu9fQI7UdD+SabbMILiohoiXIiZO694d5I1aakYLRQ6y3C69+/hWQ8hREDhqG4oATwPBxwxsESMkeb/m+79DaMu/9xREry8PzEF0wqvOXc6/Dif15GCh6G7zEE51xzARbMXIiDhx2Kpng9xk8cj8LOhRjZb3tEnRg8SZMaavWG8FEphGuaajD+m1dQ1El2ikyZRL+i4UmD03HHHWdCnh5Wvvzyy00oWhYapM4880xzaD2kwUjD0Lhx41pqRtXdd9+N++67z/SbeWW19jtmzBgceOCBJlDp1ddHH320CWThhTg6Tg1V48ePX2ycS6L97rTTTr865/HSSy81wVmnp9PZdtttTSjWZQ6noxfnnH/++eZ5SAPhJZdc0jJdHV7Xm45fz13VMBYOr/Sq7yOOOAJ58mVXl1OnpedP6muVGTK1hliDeziv2j6k74FOU5dHl1vXh1payNRp3XrrrXjsscfM+xnOl35xWGONNXDbbbcttu6vvvpqPPvss+Y9CdeLqqmpMaGaiKi1X0q7Fci3PMl6LpJSQBaiBJcf9xeMHnE4yosqYXl6EFsLs1/Ok3LkpaNVjmE7y0dKCj0p/mH7Ebz51Dv4+s3/yoi1kJdv99KLKQ6ln6QW+jLYYacdiZd/fBVPT3wGyQIXxYUlOOXQ06Uf7ZGIWtNwozV8YYDRkKFBbFnoOZrnnXeeqWnUgKJBRofXEKPhRoOe1o6GwaWqqsqEOp1m2L8GPH0cPHiw6W/BggU45phjWsbZ1NRkQpYOo8PuueeeZlxLo+dWhrp06WKGV3/729/MOJUGWa2RVFprF4axn3/+2TwqnbeXXnrJDKdhT4fVsKjzq/3rePUUg3D5lAY/vThKg6euB+1H+9fn4bRb02XTJjOoKu0/XJetu7Wm86CNhsann37arD8dp86vLocGTq0x1Zrb0KeffmqWL+xX510bnecNNtgg3RcR0eJyImSGp1OWdyqDm3Lx/ivvoXZejbmRuxPR+11K14zCWYtfvf+l3i+zNdPNtnDqkSfDjtsSKDV6prNjundbAqov4RMRoKCiABf/40JEpL9vv/g6OC+UiH5Fg8n3339vnmuo2XDDDc3zZaGBRcOJjmOdddbBQw89hBtvvLGlpkxDnB52zxQGsk033RT//ve/Te3mxRdfjN69e5v2BxxwgKlV06CjIVWvwn7iiSdaavR03BqilkbDlIYyXR499Nu/f3/zXGsQ58+fb/oJA6eGYK011fnSYTTkhrT7FVdcYQK4dtdDznrKwPXXX2+6a/96JfoNN9xgXitdJ+FhZh3m2muvNbWKWhOqga+t6LzqYe8XXnjBzJcGS133b7zxBm655RbzWudHD4vrMquHH364pfZ6t912w4QJE/Dmm2/iqaeewjnnnGP6ISJqLSdCJkxto4+111sDR5x0hARAH3WJOtz33ANIwDW/6rPk7/WL04Up61yB7gN6otApwFF7H4WCSN5iw4aB07QLO8QceWpJwJWEmRtrhCjnhEFLaQjR0KTt/pfPPvtsscO/Gqb0sO3aa6+N6667rqVWU88LzBxf+LyiogI9e/ZE3759zSFqDY8zZ8403ZSGVz0Mr9PQ2ydpDZ2OT2mQWhodTxi0KisrTdjSgKouvPBC1NbWmvMdtfvIkSNNiNTD3/paz2UMp/PKK68sdl7iX/7yF3PO4vrrr29CYzjO5557zjyqiRMnmvFoNw13Gtq1NnXIkCHpPtqGzrPOR3jawjbbbNNSO6znx+6xxx5m3WuofPvtt00/YU2uttdh9cp67V9rjPXQOhHRkuRIyNTZ8JGw4hh15iHouWFfnHP9n7H6ej3NYXTdCeiFQKYmUvY7GXWTAVMzGRSe9c11uPfFu5FwEkg1N+mJZBJT01WYZhD9/XMfjhVpOdp+4yXXy57KQZ+BvYNpENESafBQGjYyg97SfP7558FnWAwYMMAMGzYaNDW0KR23Bs7/RcelNZDhvCitydT7W2qjt07SfrQ80MPuS5N5IY1e9KLhNzzcrbc2uuaaa0yw1HCs56KGtaQ67nBeNSh+9dVXLc/DczmVPuohdl1GHSZcVu0vpO01RLcXnSd9T5ROW09l0PWnh/O10RAZzp9eeKU0cGce+teLnv70pz9h0qRJpjsR0ZIEJf8KprWI5ucoNeE5Pu4edxf+dMCf0qFw2VJfS186jOx7Hnv/cQmctbAtraXMID1qu0fvegSHbXcg/jRgBBrnNaJJCv9r770hR9YIUW7q06ePedRwohetLAut8Qst6eblYSDTcep5fstCLzYJ6XA6Dq3R1CY8BK/CGsQl0eHCQ94aqjp37myeH3/88WZ8WjOpV8JrsNKavE6dOpnAGQYwDZ7an3bX80F1fEr7DZ8rHSZcxpC+DudNn7fu3tbCm88rnf/MJnNewv50nerpDWGw1oCvy3jqqafixBNPNO2IiFrLkUglhZr89zwtmKXA1X2EOd/SNzsNKfXgelp7oP2GtGD+Zfa1wE6kEkh6UgjKuEo7l+Pv912DhlSTFIwpeOmB424zGqW/2gXVmDNtLlJxD1ZhClff/w/0WquX6YeIlkx/QUZDVhhINIT9L3oOpQYSbVrfW1KDmo5H6XgzDzkvjR5W1uF0GD3sq/ewvP/++02jV6WHjf4qz9LorXjCUNWjRw/zGF6EpOPWblr7qOdW6nOdPz1fUqedGWD1l43CcKsXCmUGNT3/MTxXM1xWHTbsX9trP/+LjlObcDxh2F0W4XRDeihfx6P0fqb33ntvS6PrMmwOO+ww04/SW0O9/PLL5vC/npYQ0hpfvbo8HB8RUSgnQubf7vwrrn7kWhx/4UnpNlpAS2NbuP7/rsc1j12D3UbtHoRPsfeYPXHDE9fjuvuuDpZAej3ryrPwyrTX8OJXL5p+tN8td94ar01/Ax/M/xDFXYNbE7097V28Kv29Iu1flebl6RPw3NevYOPhg+XrejAuIloyvZWPBkMNFBp49OIVvUAkDDzaXgOU3vPx9ddfN+00tGkNpXbTGsgff/zRtFd6m5zwMLmGrtZh6LfoeYB670ztXwOhnjeph5xXW221lkaD1JLuCxnS+Q9/DlNpTaXS9vvtt595rnS+9HxQZb70itaBSm8VpLWZSpdPD9NrP9poQA3Xj573qe10PHquqc6/Lr/WCLYeZ2th7aHS9aU3xf9fw2i4VboMeh/RsH/9sqDPdb70tkQa2nX9aVgOG12HYc2z9qf96/zqRU16OyS9IEtf67Lora10vRERZcqJ+2RmzsFi5ZS2144SNhej7cww2i0ncjLRKkPvd6m3I9LgEhYfGkK0RlFr/cJDqhpcNIxoP3o+47Rp08xzDaEaYjRw6uFYDSo6vJ73pz9VqfTiHb1aXGmAO/vss83zTHqlt54XquPU4bWWUYORhk69Mlwv2tELV5YWfrbeemtzeFvnW2vxwtMBdFi9BZLOm9bm6b0sw/HohTJ6wYsup9bsacjS6R900EEth/H1tYY2DZs6PzqPOi69Ul3DmY7ryy+/xOmnn27Wo77WJpy+1vjqMBrow/tkKp0nHZ+OS9ejhmgNkrpudTzaTu+TGfav8x3eailc71rbq891OXTZdThdFr26XmtzFy1aZGpW9d6bWmup9GItvaJ84MCBLTeB12UP172GZL3qnIgoU04kNC27w2Yx+rp1wFQtA/z+2ddd4pIaIlo2eiXyKaecYmonNexo4AiDioYODTja6D0oNcxodz2fT7sp7VdrEMOwpMNtvPHGppb097jzzjvNhThhgNNApueJaqjSQ9o6D+E0l6R1N61ZDGng0ppYDbr6qz66DKHwuT6G55vq9HV+NKxq6NJuuvxauxn2r7WHehFQ+FqvJt93333NOgrXo4bLMGDqa33U8YVuv/12s2zaXtejhmldl1rLGY43s3+9vVB4vqj2H94XVJ/r7YfCC5F0Xen7oTWSGox1HOHFTDqsfrHQ6WptqIZYbcLp6Punv1BERNRax60G1PI0KFN/l3Cw1g0RLTu9zY3eV1GDoYYbDRph+FHrrrsuHnzwQRNmlNZyajDZfffdTT/ar4YrrYW78sorcdVVV7X0q/R2RDqMNuHtj1rTYKb3xdTAqyFJ50EbDU4auvRWQGHw+i1aI6nT0FpQfcykw7YeXuddA6j2qzcmDw+RKz1PUWsd9QptHS6s1dV+9ZD5ueeea+Y5k140o/eg1GF1feh6CS9+0nnT2lFdlpDWNOrV31qbqPOiw2ijNHBrTaeui5C+D3q/Tr1yXqetV9+HdFwapLfbbjvzWqed+b7oz4fqNHRZtDZZl0O7hetZbbbZZmaZM987IqJQThwuJ6KOT2u2WoeoJQmLnDDAtX6tdFzh68z2rYUhKKQhSOdB2y/LvITCWrnfM0zraYfC5VFLm/clCedfh/ut8YTtw34yH5cks1vr9yhz+Ey/NS4V9vu/pktExJBJRERERFm37F/biYiIiIiWEUMmEREREWUdQyYRERERZR1DJhERERFlHUMmEREREWUdQyYRERERZR1DJhERERFlHUMmEREREWUdQyYRERERZR1DJhERERFlHUMmEREREWUdQyYRERERZR1DJhERERFlHUMmEREREWUdQyYRERERZR1DJhERERFlHUMmEREREWUdQyYRERERZR1DJhERERFlHUMmEREREWUdQyYRERERZR1DJhERERFlHUMmEREREWUdQyYRERERZR1DJhERERFlHUMmEREREWUdQyYRERERZR1DJhERERFlHUMmEREREWUdQyYRERERZR1DJhERERFlHUMmEREREWUdQyYRERERZR1DJhERERFlHUMmEREREWUdQyYRERERZR1DJhERERFlHUMmEREREWUdQyYRERERZR1DJhERERFlHUMmEREREWWd5Yv0cyIiygItVK3gqWARS9S+wk/f4p9Ean+sySRa1Wi527qhrGlZnfJEn3vphojaiy+fOU/+uvKcn74ViTWZOcjzPTQ3NOOD194HXIvfwyh75NOeuT2lPBfD9tgekViEX/izRdbx60++iqjvwre4gyNqf5ZESwt91lsD/dbqn25HKwJDZo6aNWUmDh12MPKtfPmo8C2i7PklSzpIyL+nPn8axZUl6XYrofDj044heucBW+CygzaGn6qVoBnMQPqBiNqY59uY73XBoh6DcOSZx6bb0orAkJmjZk2eiWO2Hw3bzpOdJGtDqC34SHlxPP6lhsxieb1yVmXO/XEe6qprMHDTNeDJIupStvWS7tp3Azx3bh9Y8Xm/fH5NScvilqjtOZiDTTDBH4yDzzhqZS3aOgSek0lEKy/NdEkXh//pAHz39hewJe+119dq30sBXnqCZqIMmETtQz9rej4mrWgMmUS0UovYPvYdui4uPHh3zPz6h/Yr9EymDMMlGzZs2rfR6kseBVzRGDKJaKVmWRaKUnNw/zmb4fRdh2L2f2fC93Qn1Ia7IF8v2At3dkTU/sKgSSsSQyYRrfT0WtOi1Ez866wtcdZuW+Ob9z4zCZMFIBFR22EZS0R/UI7X0qVnz0oXc3p1d0FyBv519ua47NA98dPn37TZIrTHxUVERLmOIZOI/iCJURrScrVJs3wnXdA5JmlGmmfggTO3wFm7DUfdlAW/6n+5ybgYMImItMjlLYxyEm9hRG1vOW5hJJvkXVfehKg8De8DmXt8WSILqQUNsH98AWO2S0o7bWQ5LRsNdi8ceeW7+Pu4VzFg8/VgZSsZyurYve+GePbsHkBifrolEbUfG3OwMSb4m+PgM47mt74ViCEzRzFkpoWFw29tpYsFHH2udVZBO+2kMYN+y3KETMlqJ221DUZt20WGytw+f+uNan86J74kR1vmsGdxE/pUVEmL9LxKyPQRQXO0B8Zc+wkuffg5rLXl+qb/5d5iZMIrf8hMryXfNeuS2pJuyelyzdf1Lo8duVjTZTC/hNWWC8GQmSsYMnPUqh4ytUzQYrUu2Yy8WAyOv+QdmSlzleWaqKP9ObJFu5IwtZP529ITLW45QmYKuGT4prh033wpRFqHzFwqUmRedP5+VcyF25ONeLQnDvnH+7jjjU9QuUbP4HvL8mwyMnxWQqZZr440MjNazaqBTuXA5txsF8nnzEIU9WZ5qa358KwoGuwSlPjNUsA1SLv0dtGRmHJcNxjZttt03hkyc8WS99xEK5gne/pG2ak++PK/0W+9gUssJLSMSsab4LkJ+WLswJYCTIpiVDfVSFd9xpKlTZkgn5Q3Sxu98bg2mc9XdJOeNxPOMoNwJhd5yZl44MzNcNywzTD9i+/b7Wbt/5PWEMpG7o88DvGNdtMW0uRCkS1f5LY6EP7wI2S18jPWPhzUpgpQMvZq1DSHtccdb/etn0RXT7LpaOGY/jCGTMpJZncqe3vPSsF3XCmTrKCR8OjblrT3JAx4uOqeazF8vx2kb9+EzJqGarw54z1U1daYIzK2/LMsvfBDGglFMqi2MeMPQhIPqP9hGsZ8rWlT5kXwNGcs7Z3NnF8PRdZc/OvcLXD2nsMx6YMv0u3Vb4XT9uPldYIbLUwHi9brWF6bVksoynXxTTd5YmrztZ+MdWK66fDaSDcdv0nY+hj2rzKGSfPtmPQiYcFO9996+mbcGXQUpp08MdPTpzpM2KH1AOnX5kH7S/djHtKPrd8bM+/ahLVkMpypDTY9Bw9hY6qr0+213/TTX+jwv4eOQ4dJj8s06XGE6zSzH2Vq9ZS+1ucZ82rIc7OsuhxS5umjXQjXLFvGeJQZTP+Ew8i4TDulT8JpajfzxLwMpiuf4XA64XyGozbt5YXpPd1NX7SMJz2MeS7MONL9GOluOs9WBM7Gu8AZMkpa5Ut77S/dmGVsGUm6oZWBbhFEOUjiX7qQlliJ+qY6WDEg5SelSJQ2Ej6bvCZES/PlMY4mtxFNqQbE3URQrtkuEqlGcyg3nmhCSv41p5plh+2h2Y3r2IP9THg4kn63lrVmdg65umPQIi5sMmXOszR+CgWpmXjo7C1wyYEjMevzyaa11oZrHytGegcs8x7sfzU8tZ4bx9QMNUQ7oT7SVbbyArgSRDwJgTpQwo/JUPLcBAkZlx1B0ku/RkQ+TwWmeyNKUBPpgqQMG6yrYNp63mrcL0RtpBMarVLJLhFpr/OgZ+I6aEjlYVGkM+rtYglB6WkEnTPo/EelnxJUx7qj3s+XL4ky7ZR+ULW7/gmXS748yt9mLx+LZJkanBLpV+c1/f7J8sdlGWvzVkOTL/NjLj1Ttixrvkw+T5ZBhpN10Sj9+eZ0o/C9t+E5ebK+CqSdLkcUTShGdVT61WUz7XRaDhrluSfD1lsVqHfKzbC/zGNIQ6EuqIO4J+sivzuaZD2lZJ2Z9ul1EJf3oE6nESmTZdF1ryzT3neiaPSiMg9dZFnLZQraXYdXvsxfAWpk2CZ5n1JhcF6ClJ0v043KepN1E+sGP6qnv8gy6LZhl6Mh1hVJyLpIL59O35dHPfzeKNN2pZsr/Zt+IvLeyKOZVzM5WW75QpG0dH3q/AXL7FqFqHHkvY9USr+6ntMLLNtBSrrVRjvLNiXd0tNslPcHeV1kHKVo0OnJcsuEEJdha51OqJN51PUYaL2uqaPiOZk5apW/8EfKq0TKxd0v3Ynbb7kTV1z7V9QvqENxjxKcffBZ+OCtd/DOtA+l0JJ+dfW4wLQvp6LPen2hX5JlTwS3OYXtBmyB9yZ/iv3+tD8ee+VRJBriiFXk4ZKjLsTnb3wiRV9MCstVcP0ay3dO5qXDN8Gl+8gboMH+dwyas/RzZkuIsXrjyGs+wbXj30WPdfoFlWK/h5So2bnwRydsw939QjTPmYSiTx6R14sX17VuMYoPvQh2ZW/d4OHVzYftFWHB24+g88z3kRx8AKKVnYHxN0nfPmokrJSdcAsa7joLvuuh+NjrsPC9l9Bpu93kMyPLH4ug9l8Xo7RhmmQGC00DR6Bwh8Okm7zHBRJYZ/0X7lNXwhs6FkkJVcW9u0NSHVBajtSkD2GPv0XmOGmmFXww9a8Mt/bOiAw/WNJjo/nM/jx+HLpvuR2SD1+KqNeQ3n60/zw0990S+bscDdRUAeUV8GZ8Dn/cjXAkezV23xSFu58ALJgHdOuOxBevw37/UQlsERQdfxNmjX8GPf90gIyqHmhIoOrFB1Ax7xNZjXrkw4E3/FQk4tWIvCvrco3hiA7fD1go71GXrmh+7VHk/fAqmmUeCk64E1WfvY6KwUNknufDveNsODqPmWWFLqKE9saSvig86AKZOVmO4hL4dXMQf+Ai5Ed81BX3Q8mB58i8yHIXSxCf9wP8Z6+X7zRJRMbciB+fexwD95H1kpKRFcg6fPl+OJPfkB1zElVlA1Ex6iJZFplmxMLcN8aj2/A9sej6Q1EZlfdDQ52ZH1n/u56JutlzUbL5NtJvAeJ3nSfTaELsgLNhF8t7VFcj67IItQ9chtLmmfJFIwJr5xMQWWtroL5W3ncPCydMQNkGg2A/fgX8nU6AWzMfsQ91m3MlCBeg8MQ7sOjWk1CJOlRLkC8fc7mmW+ksha/bgOZHr0C+V4fa/D4oPfxS2WZ0fUhAr5+LuvsvRslRfwEK1zDrDO4CpD57ETUfvIJOR/9NlkXGE8mD31wN95G/INIs769ZPl3RfwTPycwV5nsKUW7yTQ3OKaecjB3XHIZ9ttoDR+86Blfee5UU4DEM7TME/333a/zl1IsxrNdQjNnjKGzcY0MTgDbtsSl2HLQDSgvlW3O8Dnc9eAe27rs1dt90d+yx4R64/K6/wSqSwk4KaZY/ZGialB1bXmo27jp3S5y+x+74/PXPZBtcPNjlDEu+Ig09GH5CwsyNRyFx2/Goff5BoHNfiXnm5lLyBUrPf9MaPi3q0yeK2PkSGyzZrzuyYy9HcVklmm8+Hk13HoPGT19G6S5joL+6WV+wmgTMw/HzXRcgcffxaJB+/E9eQtSJmVBQPGAdzLvjz0jedyLm3XKKBJbNUWOXyHTS58Cami0btQWrI7LTYZh3z59lPMeh5paT0XWohNpIocxhOiSZxkGTF0X+Dkdgzv1/Q+rf56LppuOQ/Og1OI6NBW4ZCvc9G3Pvuwzekxej6tZTEeu3AZrzO8GyZXgZttt666Pm5rFovvVk1Lw9DhW7Hy3rIDg0W2+VwllrY8Q/fAF1hd0R3WkUFtx9LhKPnSfjOg352+6J2qgEMg1uViEKZPYb/nkcEneeC5n8r+ni+S4Kdx6N+S/KF9gHzkLDLcchNf4BWUce6t08lBx8Hub/52akHjkHDXefCk/eq/hqg83v6aPJx4C9D0fV7Wcjde/JmPvgZYiMPFTWgSUxrhQVh8gyPn0b4rePQd1NY9GpTy+ZZljLmUG2z1Szi5ItdsHcOy5A0z+PhpOQIL353rCra9Bw56kS3M7H7AdvQOl+p0uejaJewnqk72AsuvkUJO+R9++uS9Bp+B5ISdlpfrzA0tMhZPtI15x72k62G18ek3YByg88G3VvPIuGB05D04Oy3F9/BmfrAyS82ijd8zjMHv844vefiaabRyPx7B0osFNouuvPwMdPwv/iOdTfOAaQoF8xcjQWfvk5kncdL9vv0Wh+6lq4TRJ601Oljm9JHx2i3CAFnC2l+9WXX4WivCIUxAowd/pc2AW2FPoxFOQXS2EtoUACZ0m+7BRieSZ8qrxIFIV5eljMRkr2mOeddg46FZVL4R9Fc3UT6hbVYdvttwt2tmYIIk0NuhN3JLhJKKmPo0efbpI9tX3u0R1//hqboe7tp1ASaUIMcRRV/yhfssIrvsNTQnT+pTGLoUW+NvpCEoWfQNNHzyNfDy7bSWDaRKCgFK4tYW/D4fBmTkY3bz5idgJFVj2cmV/IMCkZ2kPzzK/QNVKNqJVAqVcn2TIFp1BD5i80n+cP3AD+nB9RGZ+BmJNAmdUI941HTUczS+ZPIGIl4TcuQsXWu6EurxMcWfexud9JFwlza24Jvy6B2MCNUD9oJLDuUNTXNqBw0GATirUmuv7Nx1HmNCNflsWZ8r5ZlqbCLvKWRuD03gCY/QMK3XqUr7s1sLAO9prboHnd3WCvOxyJuI9Y936wNRx7Lmo+e02WuRExS9aTBp7WRzzMlw8b7sI5qNx8B9QV90Qk6iAy7weZb1/yew/pXgav50A0rjUcyUHbo7omicJNdzCnC0jiRMN7L6PCaZDlTiHWMFfGKdteVMqwCg27Uo79PBF5tgRIpwlVrzxghvkVWUe+hN2maV+hG6okHMclSHqIDN4Jc3+ugr/ecDStsxMiqw8ESrqhVsJvxbZ7oO7DV1AJef8kAHbxFyE+Rd5bvVBOltOszmDk6Sag25PrFMkXmbVRH5PtRMbrrrsjqr0IovIlIyXrKTVjElbbagTqyvpIOZ2HyKKpiHhx5Dvy5UOWU7edQkfWjwTt1Izv0GntDVFbtqYsegFiNTOQJ9uTmWaOfu7o92HIpJymN/qur6+H5wUFn6cFu5RVep7m71FVtciEBduyTfPz1Nno1q0ryzFanGwPDdH+OOgfb+ORrz5Bj4EaFHJTSqud5ItXvFECnhblMu+OhEak4kEPi2n9efGDz5KEqage3tb0oJ8NbWc5GqlglVTCra+Cl2o2/ZtQZYbRT5/021RthtcJa8jR6f+61le+BBZKKKldIJOQ+XV1/DKLDYvSwwoziE5R5yWFxgcvgVM9DxVHXI7YiXcgPmgH6SWGvNJuiNfMR8P075GY/gOS0yej7s2Hkfz2g6CmUcYX85vkUcYlQbFIQ/MnL6F4013Q6OehcKdRWDj+QfkKkYRdWomm2VPRPGMymmb8iGYZZ9XTNwJzvpYyQUYmYSum6zKYud8g/flJpCbci6YvXkWng85A3rG3AyPGIulL6CouBBKNaJw2CU2zZDozZZ4nPodqExZlcF1nTXrvVl0PwUWJwfQ0aEZNeyeppx5oBwnk+j4EPf2a9GtrDaAJxG4w17aN2umTUCdNgwQ/zP4eix64XMKeTLywAgl5b02o1HHLDHl6uF9Y5iIcfaYrNT09Dd6mNtyBpfPmyfs0/TtZtu9RL4099WMsevQfyJftKPXB/8kXlxfQeb9TEDvuJlg7H9dSsx6QR1PwShD+5iU0vvYQOu1+FPKOvwX2nueh0dNzoNRvLCt1KLrVEOUmLZNMozsxbUxbU/boTk4LRtd1EYnooR15LQWwm+7JPGhBJo3uP3fYcUdTo6nj0ouH+qzTFxM/n2jGxbrMP0b3O/pOdOx9QbBNBNtZBLXOQBxy5bu4+4PPUGLOU12BRWS4LesGbMi8pLdp3eFH9XB33TwU9eiXXgYP9X4BkJc+v1b6SzTXAwUl5vOin6E6vXDHKZTepbtZNtn69WlasLRB4PGm/RfR7n2QtPOlN5kHDW96Pp1015fmIpXF7i6gnyQdg3bU157MgoeGn2fCWn0QXL2QRKarF5zYAzaWcemwukyauNIk4BTZcUQ/fRipe07B9DvOQ/7QQ7AIRVgwdSLyu3ZFReN0dK6fhK51P6B7/U/Ia1ooi64hV49LKB2fPJdQu+DDZ4H1h2BB0UDz5bQ4vkCm7kowmoSCgf1RWT8F3eq/R7e6/8rjDyhILJThgnk3y2ICl45V51XnP1hDweLKHwlyMbcJxZNfRvLuUzH3trNg9d8UTdFK1M+dDRTFUFw/S8b9I3rUfYceTVNQ3jgtWM+yLiwz3tYkxEsoh1OAlNYaptdrQdcB0knXv86PzoA0+pBmll3fDysPjq7TxkXoLoN3l2l3q/9O1tckVDb8hEJbguis71DaZ1BwgZiMJCXjjXXuHYxFgqov4VhSvTyXwCvrzS3qLM+j0qf026hhthl5jT+je8OPMv5J6FE/GZW1U8085EtwLfjpNaTuOx0Lbj8bVs8NkeiytgyTnl9Hy+tgnVpuAoWzP4D/0LmouukkuLEyOIOGSDdllog6uPQnhij36F0vtay00+FQC6hgB6A8UyP5+vMTcOgxR8AqcxDNl4LSkUJWCsUNt9oQlV31as2goNr1oD0wYL3+8PI9HH32MXBkZ/nFp1/KvlC+9bMs+0P0nQjfjY4r/ebLzrQWq+PIv76Nm157Ez36rQZElhQA2pGEpiA4ydep4tVQVTEItRXrmqauYg24EhDq3noUxSNGYVH3TVCV3xOxEUfo5bry2ZEPjnx4UtO/AHqthUWVG6CmuB96Hn6RvGkRed/Cot9FVL50hW+kfE2Tv/rCReK7dyUklSK1xShU5/VCTY/BwH7notkEGQkq+uHUsKDhwaxHnV99Hq63YDzetM8ksOQjsdkoLCzsjUU9t0BkzW2ks4bB9ITNo4VGvWpv9zNQ22kdNMaKkWeCj4tYMo6Shd9L+KlFdPsTUFs8ADWl/eGOPAHxwq7yeQ6Wx0zezIvyUIFqePOmo9eB56NxwjjkmZpOmacpn0pmzEdq8/2wMH91VMu6dfc5F00F3WROdDnS82YeJZzHugAH/RWL3BJ5LdMyE5JungSl/c4z678xX4JYaYWkrBgSiTgK/Ua4EuY67S8Bqri/rP8+aNjsIKQGbG2yq45XvygH4wqW3zxKmVQoYRgzJQjvfSaqC/tiUdkgFI0cLd20plLnSUeg/YdNen7NPKckDidQM+4OlOx5DKp7bo6afNl+VtsaOPAcpFIeFr75KKJrb4baNXZCVWx1NK6zC+zO4ZcVH8nvPkL+2ltgfqGs5/J1ULbXKenpyHcW+RKQ/PQlrD7mr2abrC7shfpBOwPbHBzUWO53Pmq7bSzvn6yPok5AVLaHeJ0spo/ErB+AgZuitrAPGgu6Sr/noLrXVmjM6yJlcwEixaVw9YIvc9qKLg91dGFJQ5RTtECK2A6aapvkuQ3bHCaS7/12FE3VjfJNPWKKvGceehrTJ/2E/7z1GFbvvzo6lVbimD1G44YHbsQt/74drquFMnDsQcdg1OEH46kPn8L6662DIQOGoNAqCM6/olWY7Mhk26p3+uPAy97EvZ9PRK+1+5h2K5wmEU+2+cafUTxgEMr3Phkl+5wizWko3vsUxPPKkT/zU9Q+cS0q9hyD8tF/QWLSZ/Crv0CxX20yX3ndTNSNuwWd9j4eZfufjqmP3Qm/5nPkec3ISzXDb5olOUo/I7K8EhjtZAP8+tkSPIFiqwEN95+PosruKD/sLygdLmH22YfN4Va7eR7shjl6FyCZT0cigUysZloQ4kxI0/HJSOR/qVWLBbeegKLV+6PTEZehYu1NUPvMNUDDdMmZGlZ1HPJH+i2MJlHz9ksoGXYISo+4El2H741F952PkqiENiuO+vvPRTRVh9JDL0TpQWch+eP3sDXA6Cjq5wIy/2baSsanB/4bX74fSMyG++Nb0k7mTXZ7pe4iLLztFBRVdEWnI69A+X6no/6DCXCaqqVMSMFvnoMCEzA1MOtXVRlnZU8kzHymG7PteFjw7L9QseVIlI35G7ruexKqH/w7KpxGWYcNSIyT5Zz8GSoOOQ9lB1+IfJl8fMqXMjZfpjEL+Qk9XK7j81EAmW6jtJPwHZWQ2DzuCnhzJ6P88ItRucuh+OmBv0n3qYiGedIEVGmkf7v+ZzjNGs5kftPzVjZ/IhbcdwnKh++PsiOvRPkWO2HhUw+Y706dvIWouucclEm7CgmLJfn5qP3mHRlOh7VRMO8r1L3+ELocdDbK9j4BM5+4DX7D98i3ErJ+5EvJe4+i+tWHUb7XSWbbKOo5ENUfvICofG4WPHE3SjbbBaVH/hWd9jsFVY9ci6L6WWbc3oyJcL//CBUHn20u2lo47n6UDRqMokP/gsrDL5X36iEUzJ1olimYF+roeAujHMWfldSiTvYZngu9ctRc8Wj4cL2EhE09zCNkR6bnlrmyYwiDp+4QkrLz0ppQLXQf/fAJHLXXEWia02gOp+s+KOJEpFwP1uuq+wHw//gtjBLApTtsjkv2lnVualdyUbA1mDdcL5gIw4eGIN2e9I23I2iw++OQv72Jez76Ep16dZF22uF3rIvWZPDs3MIoPR8SGoJt9Jd5MrNuaq+k0XMoTbCQdvJ50MPiwcVKYbmhnxFNg1r7r911VegY0uPXXs1uQBv9XGh3XUdBd6311EbvOWuGkx6Cq9U1fGl/OoLgcHxQMxcOqtPXF0K66YVKOpwtwwSTDD6Li9MBdVy6dDI+6cfWw7s6hC6jGUC6pccfrIOADhMsV8Z0zficYN5MIJPXppMZgRlGD9/rUlp6IVR6ML3xefA9Q/uz0exFkH/kpWi+T4KiXsBiBOPQx2A8QRml6zjoFs6Hzm+wvmyzToL2ekulYPnDz4++0FCr3YPp6lzpuHWd6ei1yAqG0X5CwfTNuaSmh6BdSKej49HtPphDoS+lF72CXN8HPSrUvNWRQOfuyH/2Cumg60IjerhuZLw6SrNsyryQ5dJx6zIvfkfZYH3o9mD6Mn9/GTYiwwXrW5dF35vgNIT09hP2nzG+34+3MMoVDJk5iiFz8XJBdycB3Vx/vclqORUKCqpA0nXxHwmZR+51GJLzJGikewwK3dCq+hFYjpApq3jMhltht41jusuQFr9j2HajW0IQjtbo6mGdnnpBTBgQZH5lR9gU6YtDr3gHN731PlZbo6fs4/Uw3XKSzSk7ITNLFtu8W2KGrIKOVq7oNhZuZ79z3nUdmICsjzqOzOf/g+lP7/6Zh6jfuIRhdF4y1mvWLL3M+90yR5G5CCZ4W2jecjQsCZl5z/1D2mnIDIJfx8SQmSsYMnMUQ+bi5cLyhMwzLjwdt910K9y6sNZlSWNYFS1HyJQV+PYzb6Iw6stTrSX7HcO2m6D+u3rOfEx59nocPUQCgqk10nffQa3dH/te8DL+78tv0WVAt/QiZGE5ZPQMmW1B35vw/fm9867DhSsi8/kyCAuXlpq41jp6yAxqSVP9tgWKyhH56gVpqcuU2VOmtljWbGPIzBUMmTlqlf/FH7FYOZh+/E2LFSKZfYeHB/XQ2y89caNXfzxk6vrrEOW2zOiiSXPwn/NGYeyQJplnrc2MoiGyFva7+BX8Z9IPKO5Ukt5vZmmJZJo5FTJp+YSFxW9uHh3m07AUugzhxTb6RawjBMmlYcjMFR19S6KVmBZ3YfM/ZfasYbKlSZ/PKc8ze6Hl02HKbN0EzBP5q9829NdO0AuH/vUN3PPRRyjsJOE6fVEZ0RL9z81jZdh2dBn0SE9b1crSqopbExGtAmQnakVQZ/fHwX99D7e+8wFWG9hT8uXKEBCIiHITQyYRrdSC2mu90fpa2P+iN/HQN9+jxxqrS+h0pGHIJCJqKwyZRLSSc9FgdcfoK9/EfZ99gpIuZen2DJhERG2JIZOIVlp67bvrR/HMez/gxtdeQ4+BWoOZ7khERG2KV5fnIB8eZk2ZhdFDDkMsor9dS5Q9eoNr8yj/El4znvjiaRTrBTArI1nUad9NR2F5Abr06JJu2cZkmrv23RDPn9cPSMwLWhBRu9GbwU9PrIkP7K1w4BljWZ22AjFk5iQJmZNn4ohhhyHPKZJdFKteKDuCX+/Qq0jlY+87iPtxPPX5MyttyNTCzXx6Wp60jx37bYZRW8gXxFSdvFo1b0FGtKLoHUUarZ4o33J3HHLGMe362afFMWTmqHhDM/770VfQn/0iyhYta/UXcAL6028+NtxqIzgx+aqfC7/XnXWeyZe65MGP3LU93/Px2VufmB/kM2v6N2/iTURtQz9zNnr0Xh09+nUPWtEKwZCZy/Sd4TcwakvcxtoO1y0RreJ4pkIu4w6K2hq3sbbDdUtEqziGTCIiIiLKOoZMIiIiIso6hkwiIiIiyjqGTCIiIiLKOoZMIiIiIso6hkwiIiIiyjqGTCIiIiLKOoZMIiIiIso6hkwiIiIiyjqGTCIiIiLKOv52eS7jO0PZtsSfOuSPbGdTsDb1r5/xl4jai2Xqz7RM8+WvPIYfQRZz7Y4hM1fxXaG2YrUqcfUlC9/syfjs+rKuGTKJ2pcGy8XCZSaWde2KITMXyTuSaExgylfTYHv8RFD2+PDkUy+NeSHf9mXzWmOzgbAjPHMmm7754CvEUhEg4sDiR5ioXen3aF8+dxWrd0Flz4rFwyY/j+2KITNHzZo8E2NHjJbPhuyoiLIoLGP1gx/3k3j6i3EorigOWq6sfA3WuuTSmJrcNtzTyOhH9tscZ+/RB15TtbxceoBnAUyUXb58s1uY7Ax7/R1w8OlHtunHnZaOITNHacg8dsQY+bQwZFLb0A9+Akk89flTKK5ceUPmrEnTUV/fgLU2HmR2Nm0cMc0Eduu7EZ4+tw+c5p+lRbrmmIjahQ8HM/318J61BQ4845h0W1oReIyMaBWlQWtV+IKf5+djzG6jMev7mSYAyjfrdJe2ZMF2dDopaTRkLqXRWlY2bNhkrbG0cVeVEi63MWQSrUr0ULGekymNXpRijhyvzGT5bPmz1+BeOHn4Npg8cZK0DHY85vxU02SfuexAz3ldlp1cuC9kw4ZNlhpfyjdXPuP6glYkhkyiVZUJYMHjykkXzIft+yiyq3DXOdvgnD+NxLRvJ5v2QVciWnkxZK5oDJlEqygtfu2VPWXJQtrSxJBEJ2cW/n3+5jh5yJb46asfpfAzayDoj4iIso4lbM5iHQu1Ab2vhx7GlcacmmhuZ/RHtjUdzk03Ony6yXi64htdVgt6FzC92hTJZhTEJ+PJS4firB2HYtY3U1stftscOiciWlUxZBLR7+bpSfW+k26CMGeaXGMCZEQCtcynqbn0EUlMx73nboPTdtoOcyZNl27hDdNZHBIRZRNvYZSjZk2egWNHHCX7RN7CiNpG8NFP4NHPx6G4U0nQclmlgNeeeBG270pjflsjLXeCmi6d5URQO3c+Zr96O8YOTUibpLSUufUc1Ed7YNRlb+Ofb3yAfuutkR5Ah1xOMp7d+26CZ8/vDTTODFoQUTuyMcNdH+862+KgM8ak29GKwJCZo1bJkKlXBMpePiIFhOen5DlrltrScoVMDxg7eDscPqRzcPQ93TqXDjlrXnS0dtVz0a0igQGlC4IOStvL9uYV9MdeF7+Bm15+H302HGiWRZchyJp/cPtbaUJmON/6qGtEm/D5ipbezvQNa5PZkZGaRdWRy7TMqpA/mT/fZDZ8bSffuKzoL+30tdl2Mj8LOpwZCbULhsxcwZCZo1bFkGlJIaznz7lSSEfMYdjf3slrWR9sur8U+vraytwJ0FItV8h0gYuHb4XL9tYdre5UQ7kTMmXGpNH50W0iJi+1JjOTdndQZ/fCUdd+jOvGv4Oeg3pL/vRkF6XD/Pb2t1Qy2pUnZAbzrr88ZoVhy3zGVvQyOah3ylDo1cL2k/I62597KXdllMn0z/pGwxrwcHsyX1IcuFJO6ZqIaDdbPhTyhUY/HJ6UXbYjwdOLB/1TO2PIzBV/sBQlagsWmhL1eOnbV1DbVJ9u92vxhBbcv0h5KSnU3cUqGajt+XrjY93Feho+crGRedMEYJrMIJzJQ4k3HfedNRgnDd8MU7/6QbZC/brDojEIRxbqrVJYo69FM/JzJi/VuxEUH3c9aqG/VJXtmZJljnWHt8s5iB59mzS3AntchNrSQdJNv/RbaHZK0LzFIXBGX4fI2DuBQ65Cbb9hiFvyZUaPxQwaCQzVSgIWSrRqY0lKOUNvDu7aEg48vU22JoM0KactOKaJuwm8MuU1JKUPW/5pIDjx/BNx0l9Olq3Z3ALbDOBbsmmb2gWJC2Z4fa2dZLzS2HClScExtVaejDllOgc9rRqWK5Sbtych75XWIkmAMyFO3rucEy7kkuYt7OajKDUNj184FKcO2xazvp5mNpOgizYZ2+Iqx0HCygNKeiEOeTRar4/WG5LW5snnLbwoTLubx3C48Ln2lykcj3Qz/esXhfCIRrirCvrxbb2Qq1j6kNBnRpsedzgJfQyfK3Phlz4GD0H3cHohaSn/a1CO4qOvRf2P32De7Wdh3h1nY9Enb6L0sLNQK+E26UWRv/+FiHZfA3PuuwLzbz4R85+8CSVb74G8wbuYMTXld5HZW02eLT7fv6YzEn4hkn7Mo7bT/tPDhK/1i5Npp+MMu+mw+qjrSZdR+9FxaHsdRvvTR22tf0L6XPvV90Cemw0+3c4MF65XouUTfgKIcoekQk/CX01zDeJ+HPVNdVI+SoiRdtWNi0xlQqNXj+rmOnldDTfqIu7FsahuIZJus0SeBKrrFpgazprGOtSnmlHbXB+UnTJ6LVrjUqhWxRvRJH1XNdRKt0hQpobpglYtkrgjial45JKhOHOX4Zj53ymmtX7dybysiZZAPlh1XhGqot1R4xXKZ7cIjRLGgr1LFE0pCT+6CtOnvzR6EtQ0EMlnLuHH4Fr55rHaqkCVXwbXj/7Sv4QlV7rVWOWotbvJl8wC6ebId0f9nEr8d2KoRwlqnG4yzXQI1pp1HT7zbbNtNPsFqDXzWCLZuUDmWaeTsQs0gcxHZM1tgEU/o3DSS+jqLELXSB0q57yP5G0no9Tx0IAioMtAzH/8KvSw5qBLrBFdmn5E6l9nw/tkfDCuZaZfiGX5UIoqpyvqPVk+W2tDdb5kfiTsNcg6qXUq0eRqeyHL7sq8NrtRpKxC1NvlaHRKUJfSYdJhWr9ByipqlGV0zXqU104eapN5qHa6oCGltdI6Pu0/ivpERN63PCzyy2V9lgWtM9cf0R+U8Qkjyg2e5+KIsUfitW9ex7iPnsZzX76AGrcaPQb2xIdTPzaF3+tfT8Abkybg5YkvY8/D98Zeh+yNtye/g1FjR6Fr7674z0dP4uizjsEr37yC5yc+j+c+fgZJW+s/gUQqiXOvPQ8v//cV3Df+Abw1/V2ss8X6QZnKjLnq8l0UJqbgnjMH44ydt8f0r36SbUJ30OnutAQO6lYbjJITb0XFoRej7PgbsGiNkSg87kb5IleIZNc1UDD6CiTcILX4noPCY65CbY/NzBe72NBD0bjhQYgdejnKD/sbKk66Dd72Y5HyNQTZqLFLYe17IcqOvQGlh12MvGOvQ1N5P+mmQTIGf91dUCztyg6/AoVjb0K9hDENlOY9a3nfLFSVDED+cbfIOC5B2QnXY97ae6PklPvly6kETVNDKD2bAkC+4MbrgJJOqEUhUraEPlNqJBH1GuTRle/A+oU3hVRxdyS1ltfUploS1RLp80OXnYc8eNuOMctXMerPKD7pDjQN3M7Mju/nIbHZQSg69mqU7n0GCo6/FXUV68q0baRKeiH/yKsQH3Eqio++AdGhR6Lk1LtR5ZXKWIP5STrFsk6uQ6LrmvDsKGr7bIfSE29D+T5noujkW9DQa1vTb4NVgOJT70HN+vuh8oSbUHzMRfBTrWuZif4YhkzKIVrK2/JFXnZItoVd1xuJvTbeDd9/MRmn/vl0TJ80HUP6b2XK/BHrbI+Ra43EHhvvieceeBbP/N8zGLnOSDx85yOorqnGav1Ww+xZM7HbBrthl3V3xuMPPYln3noeyVQcZV1KMXzP4Rg+aDgOH34Itum1FWZPn6mlerCfoWXSsg9vedLBae2PbHrFqal48PytcfzQ4Zj29U/BZkmL0/dcmioJgyX7noFFD18P/95TUXfb6ajcQEISiiWOWaaBXSIhR0Om/l6+PFgVSEk4s+Tz1lTvomTbvfDzI7cgdf/JmH798YiuMwzNURnGd1BywHnwmhvRcNvxSN17Oqru+wti8QYZr9ZCxlBUWoym209B8z0nIj59EvJ3HSuzJRPREGq+INho8otQcfAlqB7/HzTdfTLqbjkJnXr1lc6dZY50vnQ3mH6TLR95Uz+AXzcLlSfegsiwo7CgaCDqrEoT+lQJmtH45mNY/ahLEN3nQtT12ho10a5ISGgORrPYyT5LZtafhVqrDM76QzD35pOQ+tfpWCiPqJol45FunQchtuFw1N55LrzHL8Gsuy5GyT4noFECezzRDFT0gz3ze8RvOxZ49WZgznQUrDNCRqwzYaM+v7s85MGePw0NhT1QuutRmHuXjutSLLj1DBSNPNRMX98lOBUo6tRVxnUc3DvOlBy7snyoaUVjyKTcYco1KSDl8a6b7kR+fgFiefl48ennsNGGG0l7HwX5+abXglgeCvLykCdNNBJBxHGQF40hFovJTkkKTfl//x33Iz8aQUmsCPffeh/ye8QQkQDb3CAFtGz5a220DpriSZTkF6Hq52pppxd80KotXSR6PiIRG67PGp1f00+JhjgL+V0GAg21KFj0veSzZpTYDah/+xEgquEtFISe4PEXeq6rfulD1Wx0S81FxHLRIyqfzfoqxDp1Q5NTBLtLP9S/9n8osprkMx5HhTsXTsNcPdVaZiGOmveeRIG0z3c8JCdPhFMiwcocAk9PSx4SZX2AVAr2lDdQYEuodRJY9JbMo6mZzPzE6zIBMSsO99GLUX33uUD1XHTe93iUnCAheNgxshgxyX8eCiY+LeHvdDR8+BJKNt4WZWOvRvSIa82h62BZl6Uk8RGztebTRsHAbSTIlqCTLEvB/O9l87NQNvJw1Eyagvw1t0ZywDCU9t9EliMm/0vhJmW79BKIf/Ma8pykWd21bzyE/BF7mXNnkzKfFSMPRP1LD8jyJFC8rgT/OfNRNGAwkv2HoniNrZCsiyPaY63gDCE3jroPn5Mh43D0JPZlmX2iZZAuUYlyg9k1pIDCSJEp58xPAsoO39JDYMKUfdJO+9PnpmbEPE//fKA8tyIOvCZXdjwR08XcjiYho21KIb+owNyP+5DtRuHks4/HezPfxW3P3Akrz1nCbpCWTtdW5hrr6HsmmX8JOnVOL4y+8l3c8trLGLCuhCgGTbGET4aEufxiCVW1CxExh5z18+bBaqqSD5upw9SepDGfTvMYvP6li2lXM8cE1CDtaOPK5zqCZlNb6SDmShg0PQdDaH/mcy9/8l0ZTsoHvfDM9uPSKpyOCoKwU1Aon/kG5Fl6GyJtL/OW1C+aQahskT5nVMcbkQBbHp8G74unkHzgXMy76yxE1x2CRYX9pAc9S9dDaXIBimZ9gNSzV6H61pPg1zWhYIejpLOWOOE8pOdZha3MY9C+MFWH5gcvQcn6m6HiuOuBg/6O+pK+UkRJ94JSeI3zkGheiGS8Rsqwhah79X4Ue41S1kl3CZmOKbR0hAnEFv4k406ivrw3muxioHt/eNO/NtOzSsrg1i2C21yFRFyapkVofucBONV6SojQ9afrRNeZji9jtomWB0Mm5RApvM1VkrJh6o7dl4BonuuZccHlF7o/0VpKV69Alx2KvrQlgHqe7Ny0X09/QtCDne/Al5BpyY7DlR2GI68jeRHU1zSYXWHNnGpcdMwFGLL6Nrj3jvtx57i74OrIaNmZPb0UIcHl+9oi3XRUepFFHxx73ce4avzbWH39AcG1JxJ0VlnyGQxWgrzFWkMYHhI2z11U/TwD6NRdQo201+0AMVhd1zT92TKclZRgZ8fksyrrUIJRkyVf8gpL5XNpRhJ85vTLoIYmCTiejsOcU+mi0HwzTCFZ3E26qWAYs83p/Sgt6W62PR2Jlh3aTZiwaGbYPMYX/SzTLEOjK2FT+9FlKO4ij+HV8kJHoeOV7p5TLN9z9T23ZfQeohJO85vnAw01iBSXSS8RJGwZl64Dmc+In0CZ04CGSZ/DkdCtowpOvNGoqfOi9LX2r+PVedAwp0/li2/tJOCFq1B32/H4+b3XUbzvWaZM86vmIJIfQ9HML1A843OUzPxUQu0nsl41gupUtIzUoCyNjDffdhF/4SF0GrIfkuvvBPfbj1Fq1ZnJNM6ZBqd7Z+TP1PFI+9k6zs8QkxAbfAGQ4B3OKlEWcbOinOJpoallse7chC07CtfVHYoWlRIDzFWpwLa7DUNNUxWijoV3XnsDO/1pR8ytntsybLI5YS4cWtRcj6pkHV545zm89fgbcDwb/dfui2122U661aExlUCf/v0w9+f5SGnBbqZCqxR902UPm4gNwKF/ex9XvygBc92+ppPJAebZqkqWXj+TnoNFsZ5YGOuNeXn9sSCvD2ojXVDYJAEu2YzosLGYnqjA7PwBKN7hEMksSTiOg2SVhNCiEiys3AAzkhWIDNVu8gVQxmk+6hq2JDCGoczQDvIZzvca4H76AsoOOhNzYn0x261AYoO9kOyzGSwZtx7yMJ/YdLjUr6FWetiAlBta45iYByyagZL9zsEsvxNmR3qj86izTR8t762ZvPYvsXDr3eEcfi3mlG+COanOmO51QXSrI2U5imDN+RrJgm6Ijb0RNasPx2yvG+a4lVjQZUuUDN8XNe8+LvOQklFpbWw+5uatjvn5fWR99cKigj6Im5AeTEcbvdWRt/khmGt3Rr2fh6LyThJm6+BIcP553M0o2WQ4qnpug1mJQsyWdWCPugCNifS60kU3yyqFXjpQJ6Z9CvQahE7b7IPqt/4j7YJpJb5/GyitlPW3P2YlyzDbWQ044Dw0RCtNoE0XnPLYskaIskK3LqIc4UtojKB61qL060AqmUL1wmrzPBbJw96Dd8MxJxyF5955HlV1C/HhhA/w2nOv4K2Jb2GbHbYx59H5suM6YId98NjL/4cXPnoF/37wIfz9nCuQH4ngh+9+QM9+q+HJ157AaxNfQ5eulTjriDMQ1cPyZiq0bMK1Fe7UO5r0fFsOGq1eOPiKt3DD6++gpwbMjrpIWaXvr42Y3j6seg767ncsOu17Crruexo673s6Snc6BPloRv395yOa76D32L9itRF7Y8FD/wDqZ8kXxjiKnCRqH/07Vt/5APQ65q9Izp4GzPoEeW6d5CIXMT203rQg/A6JiD42zIaVapR2PryPH0XdhMfQY79TsdrRl0lQKoM/4xvEXJmnuhmIZvyKkyVfJtEwX55kvnlSpthxNDwqw1b/jJ5Hyzzudjh+ekDmsWaS9KohLIMMm3zncVRNeAI9tt8DPaT/3kddDCc/irq7TkOJ1YBI/QzU/vuvKF1nA6w2+hL0OOYf6LL1zqj518UonfeVjMRHQaIWVlEM3fc9GV32Od2sr8p9TkKk/wYyDd3tyoLKbOpFTHEJ6d33P02mdSUKK0rR+NS1sGX5emARqh74MyoHb4+ex12N1fYai5o3n0NB1Jcvy3FZ/lmIakjXcGgCoodiX4L5Fy/D/eF9lLsL03t4D+VeLRbddhqKe66OnmOvxGoHnYa6rz9Fvlsrvcg46ufIutTzQ7nhU3bxZyVz1Cr52+VLoZtp5k9G6lOt9TS1F/LC1F4mE8jLy4cbczHuw3EYMXAYKoo6wfVkhyTf1s25mWmuqT0JhOMNHn/pZ+Xny3r74z8reeGwzXH53lFZY/oLTOHazMHvrWbWZL701jP6fLEQ4qDeXg1HX/sprh//Lnqs3Vt6Xc5tQEa/cvysZEjXR/p9NatG/oTrUY8ymE56mop+FqWd1lJKPxoiA1rfqD+moMNJoNHPmQlH0mg7fZ0R9nw9zG4+i9pd6KF2Gbf+WIM5tBsOpxPWAGxmQMeTnkc9qTuYQfOqhdYiamsdXk9mNM81pIbDZdKOETMHOhYzP2ZaGWR8Oq/aq1lus0zhcoT34NQxBGPTv3pFfdBf0CYg/ckymk5m2bSRF+a0AZ26dpPxyjwE61enoePW9ZK5rOnlNTWTOr8aGvUx3d4MG/wMpuVIOy0XzSudng6jz1W6/w6NPyuZKxgycxRD5h9nFQJPvvMkRqy9PSoKK0y7sFgO6UbPDX85Qqbsn47ZcnscPqSr7DMzakDM+XA5QvaV0eDKCPQorEHv8ip5qluC7nhlfiUEeAUDsP/FE3DzWx9JwOxjOi03GfXKFzJ1GTKXIwsrSsOPBp9f0XGH4w9CWiCcj7SWp/Ieh500wC1Rq2FbhAGrtTAshvOizbLSfmWcYaD8FTOjwdPWMmexJTT/xjhMv+F4MuaxZZrp12HINAOkJxC2Mk/CZVX6uqVjB8aQmSsYMnMUQ+YfY9sWUk4K51xxFv562uUojBbJVh6c2p5ZfGYUt6uw5QiZsvJefXQ88vQG1OZSqnCHmFs7Ka0Zqv15EWa/cRvGDNUaV0nH6SAcj/bF/pdMwD/feB99Nxioa0M2lSUFjt9J1s1KEzJ11lvezsz3Nb1MLd3DYPO/1l+4LmSgxcadqfV0dNxLGq+OIz0+U/OpwvG3/sSrzPFo+6WNW7tpo/1p9/B5OP5MYb+Z4w4tqf+lML3LHxO+9bzTkL4OGx2/NPrUSLdbbB3ocmUOLxbb1Wv/4WvtN5Qed4fHkJkrGDJzFEPmH6eHtvRXg7ISGFZqyxEyVQcpOaonzcUT5x6Io4Y0ySutdXVQb/XC0dd9jOtefgc91uqF8BZZWSHrZeWqySTqaBgycwX3wrTS0e9NDJjtIKz06ACNufWVuT2Wg3i0P8Zc9QFueOkNrLbW6i0Bk1GQiCi7uCcmopWaHgzUQ+F64U9ztB/2v+wtXPPy2+g+SH9akEUgEVFbYQlLRCsvyZb66yh6Q/Vquy/GXPkhbnnjXfReb4CUfnrOmlZ1Bn55RkRE2cCQSUQrNb3sqxpdMOaaD3D1i6+j16B+TJRERO2AITNnBXtB/fkwNmyy26xqGSuKFz+YjH+Ofws91+sPb4m3zck2cxJo8JSIVghzX1J+DFcoXl2eo2ZNnonRQw5HXiRvFQsE1NaCmBk8S/kp/Ofzp1DcqTjdbuUz45sZaEo0Yc0N15ASrx0+TVKi7t53Izx7Xj+g8eegRXtMl4gClo1Z7np4z9oc+595VMtNmvRTyE9i+2LIzFGzpszEmBFHyLOIuSUPUVb4lnzog+1JL4ZJpJrwzFfPori8ZOUtfbWEa89lc4Gd+22OM/fpj2SD/hwqi1iidiUhs9ZbDRiktzAaDS/9+deHlbWYy1UMmTkq0ZTA9IkzoT9b5jBkUpboD/75GTdf9rwkBg4eCCfa6sbNK5t2Dprfvfsd8mxZ06Z4ZRFL1J70jBjLjqC8Z2dU9O7U8gnknrT9MWTmMn1n+Kkg6thYwhK1L+43cwYv/Mll/KAQERFRB8WaTKJVTni4nN8xiYio7TBkEhEREVHWsSqDiIiIiLKOIZOIiIiIso4hk4iIiIiyjiGTiIiIiLKOIZOIiIiIso4hk4iIiIiyjiGTiIiIiLKOIZOIiIiIso4hk4iIiIiyjiGTiIiIiLKOPyuZg/QNiTc04/uPvpN3yIJn2oT4dtHyCrch2bZ8FxttuzHsqCOviIiIsochM0fN+nEGjhx2GCJOnr5L6bYSA/hu0XLwzLYUbESW/Eu4zXhm4vMoLi8xmxcREVG2MGTmqFk/zMDooYciP1okb1L6rIaWsEn0x3nyT9mSKpNeHP/5/GkUVRQDjmlNRESUFTwnM4d5VlDz5Fpe0ECes2GzPI1sR7pNBdtV8Gi+w7AkICKiLOOuJQeF9ZU8ekltSeKl+Rs+IyIiyiaGTCIiIiLKOobMHBZxeMUvZZ9e8BP8A8wp2Ra3MiIiyj6GzBxm6c6f+3/KJl82qLCRjcscKA+eEhERZRVDJhERERFlHUMmdVha+RbcdUf/siqOiIgolzBkUoelR3xdc6jXlYbXRxMREeUShkzq0BJuCq5jIeXrDcYZNImIiHIFQyZ1LFpjaXmw5bEhVYfnv34eL377PA4+chTC367yLSt9XUvK9EtERETtjyGTOiT9acThu+yA+rp6bNd7Kzz2wCOw7eC8TFvSpm2uoI5Iw02ciIhoReAemDqkRDKFTt06o/bnOkQihfAkVLquh+Z4M1JWEgkrDtdL8lxNIiKiFYQhkzoUWzKj3kD8odcfxvEXnYA+G/TGa5NfRp81e6M51YgXPnkJz3z9Ap7/5iU89+VLcB0v87aQRERE1E4YMqlD8fSUTN/GoTseglsuvwlTJv6AEf2HYMakKTjwmFF496P3MXLtHTByrR0xevcjEI3E0kMSERFRe2LIpI7F/AqSjaiTB8d2kCcvCyIFkj4dLJy7ABtssj7ySopMGF0wewFS8VR6QCIiImpPDJnU8Vg+fN8zp1v6iEnjwI7aeOuFt/HkXf/Bw+MfwoSpE3DcBWPhIgEL0q802jcRERG1D4ZM6nj0kHk6MPrmREt55crGbEUx7qGnMWrr/TCi71Bsud3WGLrzMHMOJxEREbUvhkzq8Cy9L6akzGPPPAaVfSuR8BOIu3FY0Qhqa+vNEXYiIiJqXwyZ1EFZSCQSqG6sRlKrMeHgrpvuwCXXXILHP3ga495/Dm+Newsfv/WxdNPNnEmTiIioPVk+jyXmHH1DZv8wA8fscCQcOwbfY0BqTWsvPbhwXRcRO09ipB5Al9eWh1QygfxYnvTkmO4WA+aSWT4SbiOe/Op5FJUXcy0REVFWsSaTOqTgu5EN29FbFHkmYJo2vo1YNB+uLyHU1fpLbuJEREQrAvfA1GFp3aVtrhr/5bpxc0GQBFBTK2d+7SfsQkRERO2JIZM6rpaf8vlFeLW5yZY8E4SIiGiFYcgkIiIioqxjyCQiIiKirGPIJCIiIqKsY8gkIiIioqxjyMxB4aUsbsqH5QU34WHDJuuNr9uWPPPTF+ITERFlke5rKAf5+k/Spt6ghw2btmhaciUDJhERtQGGzBxk9vkSMF3flzDAf/zXVv/0q4xucPI3rD4nIiLKEv6sZA7yPA/x+jg+eOX9IAAwAVC2WL75SU7l+xIzpRmy23A4eRFpb1oTERFlBUNmLsoMltzxU5a1fORbpUpuakRElE0MmbkofEf00daz54iyRaPk4nFSt7BftyUiIlo+DJlERERElHW88IeIiIiIso4hk4iIiIiyjiGTiIiIiLKOIZOIiIiIso4hk4iIiIiyjiGTiIiIiLKOIZOIiIiIso4hk4iIiIiyjiGTiIiIiLKOIZOIiIiIso4hk4iIiIiyjr9dnqNSCRdVcxcCviWvtCFafmZLkk+8blaWPPEcH126d4GlXzctbmdERJQ9DJk5asaUGTh421EodIokCvAtouwwhy5kcwripIVmrwnPTnwexZ1KwpZERERZwZCZo2ZMmYkjtzsYhdEifZPSbYmWj25JmiW10edNXjOe+vI5FFcWyysiIqLs4TmZOSgMAkBEnlvw5G1iwyYbjZ9+dNOPljkdg19iiIgo+xgyiYiIiCjrGDJzGE+Ro7bHrYyIiNoGQ2YOy4vGAJ6PSW2KIZOIiNoGQyYRERERZR1DJhERERFlHUMmEREREWUdQyYRERERZR1DJq2UzOUs+kea4LmP4ooiWI5vnpuGiIiI2gxDJnVYGh51A9bGBMkWFjzPhV0QhWeuzreQcJO4b8K/UN6lNOiFiIiI2hRDJuUsS5KjbVvwfc80lrbIZFKmBErtrr+NlO6uv5RauVoFnvrsSQmXCdNeG9+Vvtyg36A/zzwSERFR9jFkUu7QjJhuXN9FY6IRDfF6FFQUwsq30ZRskm76Q5t6uBtoSDYjWpYHFDlo9uKoaa5F0ksi4TWjNlUL3/FR1ViNqvrqIFjqeC0PDTLe8m4VMnwDfHlNRERE2Wf5Wu1DOUXfkFlTZuLY4UfLGxQmr1WALKbZGOVx1FGjkMxLYN9D9sOkL77DwLUGIu6nsP92+6M0VoxUxMUT7z+JqrlVWLRoEcorKtC9b3fsuO4InHjGSdh8+GD0Wa8fpn0xDbXza3Hy6JPx4lcvYPyTL2DLbbbFlB8mY5tdtsU5h5+Bbz78Via8iqzjVhJuHE9OHIfiypJ0GyIiouxgyMxBq3rIdD0X2+68HS68/ULsMHAoYn4empoacf2jN2PunPm4/vxrcMcLd+LN59/A/936b3PeZdc+3fDvCQ9hWN8hKEIBinoU4uEJj2PkGiNQEImh2fXw9JfPYPwT43HzZbcgZkWwwdANcdqFp2HMjkfCsZxgHlYxDJlERNRWeLicck7EicBLuUjOT8FqjsBKeSgqKMPd196OLbbZBHUNC9Grby88evf/wfYcxBDFzG+nS2IK4njUtxHxIuaFI90tXwOkvJCt/akHnkBhJF9ee5j85XcoKStFU7xZJ0tERERZxJBJucOXKChNsFH6mL9gfnDRjpMnYdJCc10jnEgUiaQH27bR1JSELYHS8mz4WuMrWdKS8Ci9tnD1gh8NmNpSxp1IJuRBJ2TpNUNmgj5vZ0RERJR1DJmUs1Zbswca9eIc+edaLrYevi3mzJ6DyvLOqKuuQ781+0q4dE2DPAmKnoZKHVKfSyNbt7kqXQIpERERtS/ufSlnTf1uKu547C44JQ422nYjjDlnLM4//lzYlo0bLroW9zx9L/quPwCF3YvxxKtPItkQl1SptzTyUV1TB8d2MHibTdG9T3cgvIo8fYGP1m+mr1MnIiKiNsCQSTnKQt3CGlxwxsW44LILsP3O22PXjf6E5gVx2JIX337pXRw8bBQOP+ownHjaCRi1ywEY/+TLiHl55tC5H7ex64a7Yt9R+2DELiMQdRy8/8w7cJtS0B/9cVMevKSFN595HXnRWHqaRERElC28ujwH6RuySl5dnqY3YB+8/ebY78j9cNohpyNiDnfrzdid9PmWfsa5m675a8GRttKPL4/Sj+VHpK3WXurN121EfBtJOy6PUXmta9iStj5SlhsMoyNZBfHqciIiaiusyaSco197LPkXkc1TYiVs8z0o2FTlW5GJ3OZ6cWntm3ApryRZamz0zEU85ixOea5N0KM+17HqXz1vUwOpJ69M3ya4EhERUTYxZFLO0d8d/+Gr73HPDXfB0kvApbHln9bq6tXktrmaXOshtV3QmPMr08+hjQi6mURp6jSDWxkFtaDavyfh1LTTpElERERZxZBJOceybCycX4WvPvtO8mUkCIpERETUoTBkUk6yfSBiahh5H0siIqKOiCGTcpLGSnPToYzD30RERNRxcO9NRERERFnHkJmDwjMQPTe4IpqIiIioo2HIzFF6GqKGTEZMIiIi6ogYMomIiIgo6xgyc5DvBb9JA0fvBynP2bBpg0YvrfL0N91ZXU5ERG2APyuZgzRk1iyowUO3PYiIrT+PSJQd6XvTG5Y8S/lJHHP6ccgrzku3JSIiyg6GzFym7wxrmYiIiKgD4uHyXMaASURERB0UQyYRERERZR1DJhERERFlHUMmEREREWUdQyYRERERZR1DJhERERFlHUMmEREREWUdQyYRERERZR1DJhERERFlHUMmEREREWUdQyYRERERZR1DJhERERFlHUMm0SrLk8Y3/4iIiLLN8kX6OeUSfVea5Y9vBa+Jss1sXh6sAvmuyc2MiIiyjCEzF8k7MnPqTIwecigs10m3JMouS/41+U144ZvxKK4oTrclIiLKDobMHDVr8gyMHno48p1iHsykNqGVlwmvEY9/8TSKOzFkEhFRdjFk5qhZk6djzNBDEYsUScjksUzKovQn3pbtKuU247EvGTKJiCj7eOFPzpJg6VsmD7Bhk61G6YeeH3wiImpr3NfkIBMGPAtOJF+eaH1TcGiTDZvlbXTjagmcYQsiIqI2wJCZw4LD5NKEqYANm+VtFn9KRETUZhgyiYiIiCjrGDKJiIiIKOsYMomIiIgo6xgyiYiIiCjrGDJzkLnoV5g3h1doUFvhLXKJiKgNMWTmKl4CTERERB0YQyYRERERZR1DJnUslm/OJ0j6CThFNrr0rEB9sgG+ZesPJOk97KWb9JPnoLJXF8SlP89PyYbOH+ckIiJqTwyZ1LF4QJPbhPueuQ8PjP8XLrnzCrw+eQI2HrahdPIkSnq4+MaLcP/r9+Giay7C0589jSNPHa2DCcZMIiKi9mL5Iv2ccsisSTMxdoejYVkReRVEJFIejj3/OPQe1AenH3wq8mOFmNswF59O/xzb9t0OKTeFD2a/jy16bIZupT1Q21iNbl26orGmQbb24LfgKaDfMFNuMx778hkUdyoOWhIREWUJazKpQ0m4Cex+1F644dJrUCgB0/EcdC7ohJ++nYwRu26PPMdBqjGF4844AZEiyxwmr6urky2d8ZKIiKg9MWRSx+MCjQ2NsNKHv23bRkNjAzpVdkFxXjF23nAHVFaW4+bHb8Pr372F/uv1h8dD5URERO2KIZM6FK2PbK6qx3rrrw/PD04jiMebMWDAAHz07odwrCiiXh7u/PvtOHrnI7DLkJ1x7X3Xw0slTb9ERETUPhgyqUPJd6LYa9jeuOiWyzBoq3XgF3q45u7rsXDeQvz800zEyvJwxe1/R1nPSsQdF6OPPgJTp0yFZ/vm6nMiIiJqH7zwJ0fxwp/f4sF2LBRWFuHkS05FUWExPn/7Mzx0979QYBcgId03HbopdtpnJ1SWV+K/H32Fe2++S7oVmVpQbuy/4IU/RETUlhgycxRD5pJpZaSjVZKWh5SfhO/rpT0SmBzHdNXnnvzR8zRdNwXHCirrtaveQ5Mp8xcMmURE1JZ4uJw6FM2IKctHSuOmFYNlRyRQShDX4Ckd9V7tJm56HiISMDVXamNiOgMmERFRu2HIJCIiIqKsY8gkIiIioqxjyCQiIiKirGPIJCIiIqKsY8jMVXq1isGrVYiIiKjjYcjMWT4Sqbg88vZF1JZYBBARUdvgHoaIiIiIso4hM+e1HDcnyrLg5vVERERtgSEzB3m+b36dxrfkj8mYGgXYsFn+RmOl/kZS8DtJPpKWy+8xRETUJvizkjlI35DahTW497r74Tj6PYBvEWWHbTalYHvSyJmCixPOPxGxwhizJhERZRVDZg4yl/p4nvn9bX13+AZRtmQGSfNc/+gGxoRJRERZxpBJRERERFnHczKJiIiIKOsYMomIiIgoy4D/B7tLbwrSzcL8AAAAAElFTkSuQmCC;" parent="1" vertex="1">
                    <mxGeometry x="110" y="100" width="665" height="326" as="geometry"/>
                </mxCell>
            </root>
        </mxGraphModel>
    </diagram>
</mxfile>
